<?xml version="1.0" encoding="windows-1252"?>
<!-- Generator: Adobe Illustrator 17.0.0, SVG Export Plug-In . SVG Version: 6.00 Build 0)  -->
<!DOCTYPE svg PUBLIC "-//W3C//DTD SVG 1.1//EN" "http://www.w3.org/Graphics/SVG/1.1/DTD/svg11.dtd">
<svg version="1.1" id="&#1057;&#1083;&#1086;&#1081;_1" xmlns="http://www.w3.org/2000/svg" xmlns:xlink="http://www.w3.org/1999/xlink" x="0px" y="0px" width="15.106px" height="12.904px" viewBox="0 0 15.106 12.904" style="enable-background:new 0 0 15.106 12.904;" xml:space="preserve">
<g>
	<path style="fill:#888989;" d="M2.473,3.947h10.088c0.814,0,1.473-0.66,1.473-1.473C14.035,1.66,13.375,1,12.562,1H2.473   C1.66,1,1,1.66,1,2.473C1,3.287,1.66,3.947,2.473,3.947z"/>
	<path style="fill:#888989;" d="M12.562,4.976H2.473C1.66,4.976,1,5.636,1,6.45c0,0.814,0.66,1.473,1.473,1.473h10.088   c0.814,0,1.473-0.66,1.473-1.473C14.035,5.636,13.375,4.976,12.562,4.976z"/>
	<path style="fill:#888989;" d="M12.562,8.988H2.473C1.66,8.988,1,9.648,1,10.461c0,0.814,0.66,1.473,1.473,1.473h10.088   c0.814,0,1.473-0.66,1.473-1.473C14.035,9.648,13.375,8.988,12.562,8.988z"/>
</g>
</svg>