<?xml version="1.0" encoding="utf-8"?><svg width="51" height="26" viewBox="0 0 51 26" xmlns="http://www.w3.org/2000/svg" xmlns:xlink="http://www.w3.org/1999/xlink"><svg width="25.11" height="22.9" viewBox="-5 -5 25.11 22.9" id="ico-panel-burger" x="25.17" xmlns="http://www.w3.org/2000/svg"><path d="M2.473 3.947h10.088A1.473 1.473 0 0 0 12.562 1H2.473a1.474 1.474 0 0 0 0 2.947zm10.089 1.029H2.473a1.474 1.474 0 0 0 0 2.947h10.088a1.473 1.473 0 0 0 .001-2.947zm0 4.012H2.473a1.474 1.474 0 0 0 0 2.946h10.088a1.473 1.473 0 0 0 .001-2.946z" fill="#888989"/></svg><svg width="25.17" height="25.25" viewBox="-5 -5 25.17 25.25" id="ico-panel-refresh" xmlns="http://www.w3.org/2000/svg"><path d="M12.131 9.272a4.781 4.781 0 0 1-4.47 3.103 4.792 4.792 0 0 1 0-9.584c1.179 0 2.246.438 3.077 1.148L8.5 6.177h6.177V0l-2.155 2.155A7.247 7.247 0 0 0 7.661.291a7.292 7.292 0 0 0 0 14.584c3.445 0 6.324-2.391 7.087-5.603h-2.617z" fill="#888989"/></svg></svg>